<svg xmlns="http://www.w3.org/2000/svg" xmlns:xlink="http://www.w3.org/1999/xlink" width="250" zoomAndPan="magnify" viewBox="0 0 375 374.999991" height="250" preserveAspectRatio="xMidYMid meet" version="1.0"><path fill="#66b0f0" d="M 492.402344 115.414062 C 491.464844 105.636719 490.550781 98.992188 488.789062 88.914062 C 487.382812 80.886719 485.617188 72.929688 483.484375 65.042969 C 479.351562 49.9375 473.839844 35.355469 466.945312 21.292969 C 460.050781 7.234375 451.894531 -6.054688 442.480469 -18.566406 C 404.171875 -69.636719 348.507812 -106.195312 286.824219 -125.144531 C 271.171875 -129.902344 255.230469 -133.3125 239 -135.367188 C 222.511719 -137.519531 205.988281 -138.8125 189.367188 -139.984375 C 185.8125 -140.230469 182.8125 -136.730469 182.855469 -133.460938 C 182.851562 -132.179688 183.226562 -131.015625 183.972656 -129.972656 C 173.808594 -130.089844 163.667969 -129.65625 153.550781 -128.675781 C 143.433594 -127.699219 133.398438 -126.175781 123.445312 -124.117188 C 113.492188 -122.054688 103.679688 -119.464844 94.007812 -116.34375 C 84.335938 -113.222656 74.855469 -109.589844 65.574219 -105.445312 C 12.53125 -81.667969 -32.375 -41.300781 -63.042969 6.949219 C -72.570312 22.0625 -80.664062 37.90625 -87.324219 54.480469 C -93.980469 71.058594 -99.09375 88.097656 -102.664062 105.601562 C -107.59375 118.433594 -111.644531 131.535156 -114.816406 144.910156 C -117.992188 158.285156 -120.257812 171.808594 -121.621094 185.488281 C -122.980469 199.167969 -123.425781 212.875 -122.949219 226.609375 C -122.476562 240.347656 -121.085938 253.992188 -118.785156 267.542969 C -108.851562 325.605469 -80.234375 380.0625 -38.695312 422.671875 C 4.28125 466.753906 61.5625 496.953125 123.414062 505.851562 C 188.507812 515.226562 255.597656 502.71875 310.882812 467.355469 C 319.15625 462.066406 327.125 456.359375 334.796875 450.230469 C 345 443.960938 354.8125 437.128906 364.238281 429.734375 C 373.660156 422.34375 382.628906 414.4375 391.148438 406.019531 C 399.664062 397.597656 407.675781 388.722656 415.175781 379.386719 C 422.679688 370.050781 429.625 360.316406 436.011719 350.1875 C 471.242188 294.710938 489.769531 230.074219 493.304688 165.125 C 494.246094 148.53125 493.945312 131.960938 492.402344 115.414062 Z M -16.675781 -15.390625 C -7.523438 -25.746094 2.3125 -35.410156 12.832031 -44.375 C 15.195312 -46.382812 17.59375 -48.355469 20.023438 -50.296875 L 22.253906 -52.035156 L 22.398438 -52.148438 L 22.800781 -52.449219 C 24.285156 -53.578125 25.773438 -54.691406 27.257812 -55.792969 C 32.773438 -59.828125 38.433594 -63.664062 44.238281 -67.296875 C 55.886719 -74.546875 67.992188 -80.9375 80.546875 -86.472656 L 80.847656 -86.605469 L 81.140625 -86.730469 L 83.734375 -87.84375 C 85.1875 -88.421875 86.636719 -88.957031 88.09375 -89.558594 C 91.441406 -90.867188 94.816406 -92.09375 98.230469 -93.238281 C 105.089844 -95.582031 112.035156 -97.625 119.066406 -99.371094 C 126.097656 -101.117188 133.179688 -102.570312 140.3125 -103.730469 C 140.9375 -103.832031 144.136719 -104.289062 143.980469 -104.277344 C 145.273438 -104.453125 146.578125 -104.621094 147.871094 -104.777344 C 151.796875 -105.257812 155.730469 -105.636719 159.667969 -105.894531 C 174.144531 -106.996094 188.613281 -106.933594 203.078125 -105.714844 C 204.886719 -105.570312 206.679688 -105.402344 208.484375 -105.210938 L 210.9375 -104.945312 C 207.851562 -105.28125 211.160156 -104.945312 211.664062 -104.855469 C 215.238281 -104.402344 218.8125 -103.871094 222.386719 -103.261719 C 229.679688 -102.035156 236.90625 -100.511719 244.070312 -98.691406 C 251.238281 -96.871094 258.296875 -94.753906 265.253906 -92.347656 C 268.339844 -91.234375 271.40625 -90.117188 274.460938 -89.003906 L 274.785156 -88.871094 L 275.210938 -88.691406 C 276.125 -88.3125 277.027344 -87.957031 277.929688 -87.574219 C 279.589844 -86.886719 281.273438 -86.160156 282.902344 -85.425781 C 274.460938 -87.429688 265.921875 -88.992188 257.371094 -90.171875 C 227.546875 -94.332031 197.699219 -94.507812 167.828125 -90.699219 C 153.121094 -88.796875 138.628906 -85.847656 124.351562 -81.847656 C 110.269531 -77.933594 96.234375 -73.628906 82.578125 -68.46875 C 73.367188 -64.988281 64.328125 -61.113281 55.453125 -56.839844 C 44.628906 -52.289062 34.074219 -47.179688 23.792969 -41.511719 C 17.320312 -37.976562 11.054688 -34.113281 4.996094 -29.917969 C -1.425781 -25.457031 -7.648438 -20.796875 -13.722656 -15.9375 C -16.53125 -13.707031 -19.308594 -11.417969 -22.050781 -9.070312 C -20.3125 -11.199219 -18.515625 -13.304688 -16.675781 -15.390625 Z M 124.226562 482.359375 C 108.414062 479.78125 92.949219 475.84375 77.828125 470.542969 C 76.15625 469.957031 74.488281 469.351562 72.820312 468.726562 L 70.335938 467.789062 L 69.078125 467.289062 C 65.359375 465.800781 61.683594 464.21875 58.050781 462.539062 C 51.644531 459.566406 45.359375 456.371094 39.199219 452.953125 C 33.039062 449.53125 27.089844 445.910156 21.359375 442.082031 C 18.460938 440.164062 15.605469 438.191406 12.789062 436.160156 L 12.164062 435.714844 C 12.53125 435.972656 10.9375 434.800781 10.660156 434.601562 C 9.144531 433.488281 7.648438 432.371094 6.199219 431.15625 C -4.753906 422.617188 -15.03125 413.328125 -24.625 403.285156 C -29.605469 398.082031 -34.386719 392.6875 -38.972656 387.097656 L -38.972656 387.175781 L -39.039062 387.085938 C -39.195312 386.910156 -39.496094 386.53125 -39.632812 386.351562 L -40.746094 385.011719 C -41.714844 383.777344 -42.6875 382.539062 -43.644531 381.289062 C -45.925781 378.316406 -48.15625 375.277344 -50.332031 372.171875 C -58.292969 360.875 -65.394531 349.0625 -71.648438 336.742188 C -73.210938 333.679688 -74.695312 330.582031 -76.109375 327.453125 C -76.375 326.886719 -76.632812 326.339844 -76.890625 325.75 C -75.707031 328.3125 -77.023438 325.4375 -77.191406 325.046875 C -77.933594 323.328125 -78.675781 321.605469 -79.417969 319.875 C -82.101562 313.386719 -84.539062 306.808594 -86.734375 300.140625 C -90.898438 287.269531 -94.117188 274.167969 -96.386719 260.832031 C -91 279.800781 -83.960938 298.136719 -75.277344 315.84375 C -66.589844 333.546875 -56.394531 350.335938 -44.691406 366.207031 C -7.167969 416.886719 44.492188 456.316406 105.519531 476.351562 C 113.769531 479.058594 122.136719 481.378906 130.625 483.320312 C 128.476562 483.03125 126.34375 482.710938 124.226562 482.359375 Z M 432.277344 181.089844 C 432.1875 188.386719 431.894531 195.683594 431.398438 202.984375 C 431.128906 206.996094 430.796875 211 430.417969 215 C 430.238281 216.816406 430.046875 218.632812 429.847656 220.453125 C 429.726562 221.566406 429.589844 222.625 429.46875 223.71875 C 429.46875 223.988281 429.445312 224.199219 429.402344 224.355469 C 429.402344 224.488281 429.402344 224.6875 429.3125 224.957031 C 427.175781 241.289062 424.03125 257.421875 419.882812 273.363281 C 417.828125 281.128906 415.523438 288.824219 412.957031 296.449219 C 411.730469 300.085938 410.445312 303.703125 409.101562 307.296875 C 408.386719 309.183594 407.675781 311.054688 406.925781 312.871094 C 406.660156 313.550781 406.390625 314.234375 406.113281 314.914062 C 406.011719 315.191406 405.109375 317.34375 405 317.746094 C 398.886719 332.179688 391.75 346.089844 383.582031 359.472656 C 379.867188 365.574219 375.914062 371.539062 371.71875 377.367188 C 370.605469 378.960938 369.425781 380.53125 368.253906 382.105469 L 367.082031 383.664062 L 366.046875 385.101562 C 363.882812 387.855469 361.6875 390.585938 359.421875 393.273438 C 350.058594 404.449219 339.90625 414.851562 328.964844 424.488281 C 326.394531 426.71875 323.792969 428.925781 321.164062 431.113281 C 315.171875 434.714844 309.050781 438.097656 302.800781 441.257812 C 299.574219 442.882812 296.3125 444.449219 293.011719 445.949219 L 289.335938 447.578125 L 287.730469 448.269531 L 284.070312 449.75 C 270.550781 455.136719 256.671875 459.332031 242.433594 462.339844 C 238.84375 463.082031 235.234375 463.753906 231.609375 464.355469 L 228.976562 464.769531 L 228.507812 464.847656 L 227.972656 464.914062 C 225.867188 465.179688 223.757812 465.460938 221.652344 465.683594 C 213.914062 466.53125 206.144531 467.015625 198.339844 467.144531 C 190.539062 467.269531 182.757812 467.054688 174.996094 466.496094 C 171.375 466.242188 167.761719 465.894531 164.160156 465.492188 L 162.355469 465.269531 L 160.246094 464.980469 C 157.964844 464.667969 155.6875 464.324219 153.414062 463.945312 C 137.808594 461.375 122.53125 457.507812 107.582031 452.339844 C 104.238281 451.222656 100.894531 449.941406 97.550781 448.679688 L 97.003906 448.480469 L 96.488281 448.269531 C 95.507812 447.867188 94.515625 447.464844 93.546875 447.054688 C 91.585938 446.238281 89.632812 445.394531 87.695312 444.535156 C 80.582031 441.367188 73.617188 437.914062 66.800781 434.167969 C 60.230469 430.554688 53.824219 426.6875 47.582031 422.5625 C 44.609375 420.578125 41.636719 418.535156 38.664062 416.441406 L 36.710938 415.035156 L 36.367188 414.78125 C 34.804688 413.597656 33.246094 412.414062 31.695312 411.210938 C 20.097656 402.179688 9.222656 392.347656 -0.925781 381.714844 C -5.875 376.511719 -10.636719 371.164062 -15.214844 365.671875 L -16.074219 364.632812 C -15.050781 365.871094 -16.777344 363.765625 -17 363.519531 C -18.027344 362.25 -19.03125 360.96875 -20.019531 359.683594 C -22.421875 356.601562 -24.753906 353.472656 -27.023438 350.296875 C -35.355469 338.621094 -42.867188 326.4375 -49.566406 313.753906 C -51.238281 310.609375 -52.855469 307.433594 -54.425781 304.222656 C -55.167969 302.773438 -55.871094 301.3125 -56.53125 299.839844 C -56.945312 298.960938 -57.355469 298.078125 -57.757812 297.199219 C -57.835938 297.03125 -58.25 296.082031 -58.449219 295.671875 C -61.402344 288.980469 -64.167969 282.113281 -66.667969 275.203125 C -72.078125 260.226562 -76.34375 244.929688 -79.464844 229.316406 C -80.171875 225.816406 -80.8125 222.304688 -81.394531 218.78125 C -81.515625 218.042969 -81.628906 217.320312 -81.75 216.550781 C -81.75 216.273438 -82.027344 214.65625 -82.0625 214.453125 C -82.363281 212.335938 -82.640625 210.207031 -82.898438 208.089844 C -83.84375 200.292969 -84.5 192.488281 -84.871094 184.675781 C -85.613281 168.996094 -85.179688 153.347656 -83.566406 137.730469 C -83.457031 136.617188 -83.34375 135.613281 -83.222656 134.554688 L -82.976562 132.636719 C -82.785156 131.144531 -82.585938 129.636719 -82.363281 128.179688 C -81.769531 124.132812 -81.09375 120.101562 -80.332031 116.082031 C -79.269531 110.457031 -78.046875 104.859375 -76.667969 99.292969 C -75.886719 97.53125 -75.105469 95.769531 -74.292969 94.007812 C -68.246094 80.902344 -61.292969 68.296875 -53.433594 56.191406 C -51.457031 53.175781 -49.421875 50.203125 -47.335938 47.273438 C -46.410156 45.980469 -45.484375 44.699219 -44.535156 43.417969 L -42.875 41.054688 L -41.90625 39.769531 C -37.679688 34.320312 -33.109375 29.191406 -28.617188 23.964844 L -27.089844 21.988281 C -27.589844 22.746094 -27.46875 22.667969 -26.753906 21.789062 C -26.0625 21.132812 -25.460938 20.363281 -24.816406 19.671875 C -23.699219 18.5 -22.652344 17.339844 -21.546875 16.191406 C -19.023438 13.539062 -16.441406 10.9375 -13.8125 8.390625 C -8.667969 3.394531 -3.351562 -1.414062 2.140625 -6.035156 C 12.65625 -14.796875 23.625 -22.949219 35.039062 -30.496094 C 58.738281 -46.300781 84.164062 -58.507812 111.316406 -67.117188 C 123.296875 -70.933594 135.464844 -74.003906 147.816406 -76.339844 C 150.789062 -76.761719 153.761719 -77.175781 156.734375 -77.574219 C 163.238281 -78.453125 169.765625 -79.15625 176.3125 -79.683594 C 181.886719 -79.972656 187.40625 -80.09375 192.910156 -80.105469 C 193.453125 -80.085938 193.886719 -80.292969 194.214844 -80.71875 C 210.378906 -81.261719 226.507812 -80.738281 242.601562 -79.148438 C 272.15625 -76.195312 301.863281 -68.957031 327.875 -54.621094 C 336.027344 -50.117188 343.707031 -44.914062 350.917969 -39.015625 L 351.128906 -38.800781 C 356.066406 -33.917969 360.785156 -28.835938 365.289062 -23.550781 C 366.179688 -22.4375 367.070312 -21.433594 367.953125 -20.363281 C 368.121094 -20.140625 369.8125 -18.03125 370.09375 -17.6875 C 372.367188 -14.773438 374.578125 -11.824219 376.726562 -8.835938 C 384.605469 2.191406 391.636719 13.734375 397.820312 25.792969 C 399.363281 28.808594 400.851562 31.851562 402.277344 34.921875 C 402.859375 36.136719 403.394531 37.363281 403.972656 38.589844 C 404.09375 38.847656 404.21875 39.136719 404.296875 39.304688 C 404.730469 40.296875 405.164062 41.289062 405.589844 42.28125 C 408.265625 48.550781 410.730469 54.902344 412.992188 61.332031 C 417.578125 74.410156 421.34375 87.722656 424.285156 101.265625 C 425.789062 108.132812 427.039062 115.035156 428.175781 121.96875 C 428.175781 122.058594 428.175781 122.191406 428.230469 122.324219 L 428.53125 124.421875 C 428.746094 125.960938 428.957031 127.507812 429.15625 129.058594 C 429.636719 132.769531 430.046875 136.496094 430.417969 140.207031 C 431.773438 153.800781 432.394531 167.425781 432.277344 181.089844 Z M 470.707031 169.203125 C 470.371094 173.21875 469.960938 177.21875 469.503906 181.210938 C 469.503906 181.3125 469.234375 183.363281 469.234375 183.441406 C 469.179688 183.910156 469.113281 184.375 469.054688 184.84375 C 468.765625 187.007812 468.457031 189.171875 468.132812 191.332031 C 466.925781 199.367188 465.472656 207.359375 463.773438 215.3125 C 460.511719 230.351562 456.503906 245.191406 451.753906 259.828125 C 449.375 267.140625 446.773438 274.382812 443.949219 281.558594 C 443.320312 283.183594 442.671875 284.808594 442.011719 286.429688 C 441.921875 286.628906 441.230469 288.289062 441.195312 288.367188 C 440.917969 289.039062 440.628906 289.707031 440.347656 290.363281 C 439.960938 291.257812 439.570312 292.136719 439.167969 293.015625 C 445.910156 270.617188 450.644531 247.800781 453.371094 224.566406 C 457.042969 194.796875 457.277344 165 454.074219 135.179688 C 447.773438 78.109375 429.101562 21.210938 394.117188 -25.46875 C 385.289062 -37.339844 375.519531 -48.378906 364.800781 -58.578125 C 354.085938 -68.773438 342.578125 -77.988281 330.28125 -86.214844 C 343.339844 -79.574219 355.855469 -72.03125 367.828125 -63.585938 L 369.835938 -62.148438 L 370.394531 -61.746094 L 370.941406 -61.34375 C 372.253906 -60.351562 373.570312 -59.371094 374.875 -58.367188 C 378.003906 -55.960938 381.082031 -53.488281 384.105469 -50.953125 C 389.652344 -46.316406 395 -41.484375 400.160156 -36.460938 C 405.316406 -31.4375 410.261719 -26.207031 414.988281 -20.773438 C 416.058594 -19.542969 417.117188 -18.300781 418.164062 -17.050781 L 419.679688 -15.210938 L 420.875 -13.742188 C 423.101562 -10.929688 425.273438 -8.082031 427.382812 -5.191406 C 436.269531 6.847656 443.847656 19.652344 450.128906 33.230469 C 456.40625 46.808594 461.25 60.882812 464.664062 75.445312 C 465.519531 78.96875 466.304688 82.507812 467.027344 86.058594 C 467.453125 88.199219 467.851562 90.328125 468.230469 92.480469 L 468.597656 94.621094 C 468.722656 95.335938 468.832031 96.058594 468.945312 96.773438 C 468.945312 97.097656 469.035156 97.339844 469.066406 97.519531 C 470.183594 105.324219 470.953125 113.226562 471.421875 121.121094 C 472.320312 137.179688 472.082031 153.222656 470.707031 169.25 Z M 470.707031 169.203125 " fill-opacity="1" fill-rule="nonzero"/><path fill="#66b0f0" d="M 180.003906 51.308594 L 179.644531 50.953125 C 179.820312 51.453125 180.109375 51.871094 180.515625 52.214844 C 180.359375 51.945312 180.203125 51.679688 180.070312 51.421875 Z M 180.003906 51.308594 " fill-opacity="1" fill-rule="nonzero"/><path fill="#66b0f0" d="M 279.78125 164.988281 C 278.789062 158.46875 274.207031 154.074219 267.953125 151.945312 C 258.898438 148.878906 247.226562 152.613281 237.917969 154.175781 L 225.230469 156.273438 L 219.878906 72.046875 C 218.652344 52.75 215.34375 31.476562 196.769531 20.574219 C 186.480469 14.554688 172.824219 14.050781 161.832031 18.445312 C 150.382812 23.015625 141.761719 30.519531 135.152344 40.664062 C 129.421875 49.382812 126 59.492188 122.410156 69.167969 C 118.695312 79.246094 115.089844 89.378906 111.597656 99.558594 C 104.75 119.628906 98.453125 139.894531 92.699219 160.363281 C 90.960938 166.5625 89.269531 172.773438 87.628906 179.003906 L 69.199219 182.046875 C 52.296875 184.84375 35.417969 187.753906 18.539062 190.632812 C 17.152344 190.699219 15.792969 190.929688 14.460938 191.320312 L 14.183594 191.320312 C 13.390625 191.558594 12.621094 191.851562 11.871094 192.195312 C 11.121094 192.542969 10.402344 192.941406 9.707031 193.390625 C 9.015625 193.835938 8.355469 194.332031 7.734375 194.875 C 7.109375 195.417969 6.53125 196 5.988281 196.625 C 5.449219 197.246094 4.957031 197.90625 4.507812 198.601562 C 4.0625 199.296875 3.667969 200.015625 3.324219 200.765625 C 2.976562 201.519531 2.6875 202.289062 2.453125 203.078125 C 2.21875 203.871094 2.039062 204.675781 1.917969 205.492188 C 1.734375 206.78125 1.707031 208.070312 1.835938 209.367188 C 1.964844 210.660156 2.242188 211.921875 2.671875 213.152344 C 3.105469 214.378906 3.675781 215.539062 4.382812 216.628906 C 5.09375 217.722656 5.921875 218.714844 6.867188 219.605469 C 11.695312 224.1875 17.460938 224.746094 23.769531 223.730469 C 42.074219 220.808594 60.378906 217.867188 78.6875 214.902344 C 77.527344 219.941406 76.410156 224.984375 75.339844 230.027344 C 72.777344 241.867188 70.394531 253.761719 68.195312 265.703125 C 67.082031 271.667969 66.234375 277.667969 65.351562 283.675781 C 64.457031 290.574219 64.164062 297.496094 64.472656 304.445312 C 64.503906 305.328125 64.613281 306.203125 64.800781 307.066406 C 64.984375 307.929688 65.25 308.769531 65.585938 309.585938 C 65.921875 310.402344 66.332031 311.183594 66.808594 311.929688 C 67.285156 312.671875 67.824219 313.367188 68.425781 314.015625 C 69.027344 314.664062 69.683594 315.25 70.390625 315.78125 C 71.097656 316.3125 71.847656 316.777344 72.636719 317.171875 C 73.425781 317.566406 74.246094 317.890625 75.09375 318.140625 C 75.941406 318.390625 76.804688 318.5625 77.683594 318.660156 C 85.375 319.574219 91.605469 314.957031 94.027344 307.957031 C 95.632812 303.308594 97.59375 298.667969 98.585938 293.851562 C 99.632812 288.738281 100.613281 283.609375 101.617188 278.480469 C 103.570312 268.445312 105.386719 258.46875 107.460938 248.492188 C 110.226562 235.222656 113.222656 222.003906 116.457031 208.824219 L 192.355469 196.4375 C 192.355469 197.242188 192.453125 198.042969 192.511719 198.847656 L 200.9375 332.09375 C 200.265625 334.980469 200.265625 337.867188 200.9375 340.753906 L 202.1875 346.261719 C 204.105469 354.644531 213.625 359.574219 221.808594 358.402344 C 229.992188 357.230469 237.496094 349.851562 236.949219 341.222656 C 233.757812 291.046875 230.574219 240.878906 227.394531 190.71875 L 242.523438 188.210938 L 256.511719 185.925781 C 262.085938 185.011719 267.660156 184.433594 272.222656 180.898438 C 277.527344 176.828125 280.828125 171.925781 279.78125 164.988281 Z M 165.351562 166.105469 L 125.921875 172.625 C 135.109375 139.621094 145.730469 107.003906 157.792969 74.777344 C 158.539062 72.75 159.316406 70.726562 160.125 68.710938 C 160.132812 68.6875 160.132812 68.660156 160.125 68.632812 C 160.089844 68.730469 160.046875 68.824219 160.003906 68.914062 L 160.167969 68.546875 C 160.292969 68.246094 160.492188 67.808594 160.617188 67.53125 L 161.160156 66.316406 C 162.066406 64.398438 163.023438 62.503906 164.082031 60.664062 C 164.664062 59.648438 165.265625 58.644531 165.910156 57.664062 C 166.257812 57.140625 167.515625 55.65625 167.640625 55.492188 C 168.53125 54.53125 169.433594 53.585938 170.402344 52.679688 L 170.871094 52.222656 C 171.5625 51.824219 172.433594 51.453125 172.855469 51.230469 L 173.4375 50.910156 L 174.003906 50.640625 C 174.628906 50.460938 175.320312 50.316406 175.441406 50.273438 C 175.566406 50.230469 176.234375 50.128906 176.769531 50.039062 L 176.878906 50.039062 L 177.460938 49.925781 L 177.640625 49.925781 L 177.894531 49.996094 L 178.519531 49.996094 C 178.484375 50.039062 178.441406 50.074219 178.398438 50.105469 L 178.886719 50.230469 L 179.03125 50.230469 L 179.089844 50.285156 L 179.3125 50.550781 C 179.414062 50.664062 179.519531 50.773438 179.632812 50.875 C 179.597656 50.804688 179.574219 50.730469 179.554688 50.652344 L 179.734375 50.765625 C 179.800781 50.875 179.890625 51.03125 179.992188 51.230469 C 180.308594 51.507812 180.601562 51.8125 180.859375 52.144531 C 180.742188 52.234375 180.621094 52.234375 180.503906 52.144531 C 180.738281 52.546875 180.984375 52.9375 181.207031 53.261719 L 181.273438 53.359375 C 182.386719 56.796875 182.988281 60.230469 183.894531 63.683594 C 182.65625 58.945312 183.894531 64.253906 184.003906 65.679688 C 184.207031 67.910156 184.339844 70.140625 184.484375 72.371094 C 186.371094 102.222656 188.257812 132.078125 190.148438 161.933594 Z M 165.351562 166.105469 " fill-opacity="1" fill-rule="nonzero"/><path fill="#66b0f0" d="M 176.925781 50.027344 C 177.347656 50.230469 178.039062 50.40625 178.40625 50.140625 L 177.90625 50.015625 Z M 176.925781 50.027344 " fill-opacity="1" fill-rule="nonzero"/><path fill="#66b0f0" d="M 160.136719 68.632812 C 160.871094 67.0625 160.839844 67.085938 160.625 67.519531 C 160.414062 67.953125 160.324219 68.199219 160.179688 68.535156 C 160.175781 68.570312 160.160156 68.605469 160.136719 68.632812 Z M 160.136719 68.632812 " fill-opacity="1" fill-rule="nonzero"/><path fill="#66b0f0" d="M 369.5 52.378906 C 365.277344 46.171875 358.554688 44.042969 351.21875 45.390625 C 340.25 47.410156 329.285156 49.441406 318.332031 51.476562 C 318.253906 50.363281 318.175781 49.246094 318.109375 48.132812 C 317.816406 43.671875 317.523438 39.238281 317.226562 34.820312 C 316.835938 28.835938 317.105469 22.558594 313.625 17.296875 C 307.828125 8.589844 292.902344 7.351562 287.71875 17.632812 C 284.851562 23.304688 285.164062 28.390625 285.488281 34.441406 C 285.734375 38.902344 285.980469 43.339844 286.234375 47.753906 L 286.769531 57.40625 C 275.347656 59.546875 263.921875 61.714844 252.5 63.90625 C 244.40625 65.46875 239.210938 75.546875 241.765625 82.925781 C 244.730469 91.476562 252.554688 94.910156 261.261719 93.394531 C 270.359375 91.8125 279.453125 90.210938 288.542969 88.589844 C 289.285156 100.808594 290.027344 113.03125 290.773438 125.257812 C 291.164062 131.945312 295.710938 138.769531 302.800781 140.25 C 309.1875 141.589844 318.121094 139.316406 320.894531 132.804688 C 321.230469 131.992188 321.574219 131.1875 321.921875 130.375 C 323.648438 126.316406 324.695312 122.660156 323.382812 118.246094 C 323.140625 117.425781 322.824219 116.640625 322.433594 115.882812 C 321.765625 104.875 321.085938 93.871094 320.394531 82.871094 L 350.003906 77.410156 C 351.222656 77.695312 352.460938 77.835938 353.714844 77.832031 C 359.101562 77.765625 363.492188 74.855469 367.238281 71.421875 C 372.222656 66.875 373.304688 57.964844 369.5 52.378906 Z M 369.5 52.378906 " fill-opacity="1" fill-rule="nonzero"/></svg>